# xmcd
#
# Track frame offsets:
# 150
# 18940
# 33967
# 51055
# 69857
# 88120
# 100947
# 114882
# 134387
# 157867
# 174147
# 195500
# 207025
#
# Disc length: 3064 seconds
#
#
# Revision: 0
# Processed by: cddbd v1.5.1PL0 Copyright (c) Steve Scherf et al.
# Submitted via: FreeRIP 2.93 
#
DISCID=930bf60d
DTITLE=Browne Barnes White Gallagher - 4 On The Floor
DYEAR=1997
DGENRE=Country
TTITLE0=No one hears me callin'
TTITLE1=I would rather be lonely
TTITLE2=It's over
TTITLE3=To catch a glimpse of her
TTITLE4=The moment I get over you
TTITLE5=Get right with God
TTITLE6=Dear ole' dad
TTITLE7=Times ten
TTITLE8=Cold here in London
TTITLE9=You lost a lot
TTITLE10=Two can play
TTITLE11=When I get home
TTITLE12=Ted moon over Lugano
EXTD=
EXTT0=
EXTT1=
EXTT2=
EXTT3=
EXTT4=
EXTT5=
EXTT6=
EXTT7=
EXTT8=
EXTT9=
EXTT10=
EXTT11=
EXTT12=
PLAYORDER=
